####
#
# OBJ File Generated by Meshlab
#
####
# Object chair2_hzb.obj
#
# Vertices: 177
# Faces: 350
#
####
vn -1.114021 -0.648637 -5.420355
v 0.075124 0.039656 0.003124
vn -2.764641 -1.455764 -1.366468
v 0.055061 0.027950 0.012706
vn -4.079151 1.233394 -1.575516
v 0.055064 0.049972 0.016387
vn -3.984229 -3.525791 1.985885
v 0.097358 0.071923 0.178219
vn 0.503328 -3.016259 -1.453056
v 0.083367 0.012658 0.013688
vn -2.057426 -5.076503 1.603768
v 0.073539 0.018530 0.030672
vn -0.500638 2.781944 -2.372927
v 0.075845 0.071634 0.011065
vn -5.364349 1.177469 -2.392955
v 0.113936 0.188049 0.339374
vn -0.205844 5.331574 -2.543205
v 0.134138 0.161283 0.240510
vn 1.509773 0.225247 -3.793320
v 0.088301 0.045923 0.000676
vn 3.931229 -1.557545 -2.770766
v 0.097617 0.030859 0.013131
vn -1.507475 4.999579 -2.304699
v 0.610332 0.114316 0.125758
vn 1.279099 5.250800 -2.460138
v 0.589536 0.174813 0.270385
vn 4.397827 3.170153 -0.534390
v 0.617823 0.148363 0.234368
vn 5.414164 2.146555 -1.065160
v 0.614934 0.166775 0.303184
vn -2.778841 3.780103 -3.598375
v 0.555091 0.172060 0.276607
vn 4.293059 1.188317 -3.994180
v 0.591830 0.229760 0.349630
vn 1.387487 2.307655 -2.290886
v 0.656566 0.068799 0.007759
vn 5.573558 0.600252 -0.167822
v 0.666750 0.049151 0.022677
vn 5.397456 -2.185894 0.963874
v 0.614232 0.125307 0.278884
vn -5.106925 1.637813 -2.328471
v 0.581535 0.099201 0.147457
vn -3.313447 3.719858 -2.739517
v 0.624730 0.074235 0.035670
vn -4.064618 0.389668 -4.247904
v 0.523671 0.138233 0.299179
vn 1.515512 1.054720 -5.764802
v 0.531114 0.229042 0.318868
vn 3.492192 -0.795389 -3.646230
v 0.103427 0.531813 0.011715
vn -0.719244 1.949147 -3.919959
v 0.072720 0.563361 0.000155
vn 0.364480 2.567308 -2.450043
v 0.080288 0.569039 0.002804
vn 0.434856 4.279467 -0.172506
v 0.082236 0.571832 0.011975
vn -2.350615 -0.334979 -3.584170
v 0.062464 0.548308 0.000831
vn -3.486020 2.492676 -0.653231
v 0.061553 0.561476 0.007991
vn 4.385603 2.216459 -1.486365
v 0.108313 0.550342 0.023414
vn 1.098566 -2.978900 -3.618165
v 0.090227 0.514181 0.011493
vn 3.896136 -3.036407 -2.785808
v 0.135962 0.465235 0.138546
vn -3.948926 -1.335198 -1.749098
v 0.059185 0.533260 0.011325
vn -4.712183 -1.915281 -2.739201
v 0.611299 0.520386 0.034724
vn -0.466183 -1.959599 -5.164025
v 0.518743 0.392479 0.306130
vn -3.545549 1.750037 -4.086033
v 0.520490 0.451737 0.291647
vn 0.300005 1.087191 -5.902805
v 0.410295 0.398303 0.281860
vn 0.529866 -3.574409 -2.319372
v 0.643591 0.506361 0.015395
vn 2.074455 -2.954728 -4.577024
v 0.572877 0.362331 0.323451
vn 0.564243 -1.035886 -6.022364
v 0.462381 0.194779 0.300061
vn -2.301445 1.709197 -2.413400
v 0.622656 0.560065 0.003924
vn 1.724432 4.379574 -3.035270
v 0.468192 0.534088 0.362428
vn -1.032935 4.881523 1.194347
v 0.585982 0.519831 0.178434
vn 0.146306 4.879153 -0.469914
v 0.548285 0.491001 0.299278
vn -1.446624 -1.524335 -4.382995
v 0.633929 0.529222 0.000915
vn 2.944086 0.460216 -4.175264
v 0.661221 0.025302 0.000672
vn -2.568921 0.501890 -3.475619
v 0.628884 0.043003 0.001346
vn -1.311841 -2.395883 -3.511116
v 0.646362 0.014566 -0.000396
vn -4.167064 -3.012614 -0.884084
v 0.624829 0.023244 0.021669
vn 2.418286 -2.097230 -0.971523
v 0.663754 0.013312 0.004130
vn 0.501949 -2.587556 -3.679633
v 0.654587 0.013812 -0.000453
vn 5.420102 -0.662020 0.558511
v 0.657602 0.520544 0.046952
vn 5.201529 -2.059585 -0.444121
v 0.611080 0.402721 0.297015
vn 5.022444 3.280748 0.441597
v 0.599497 0.435612 0.352990
vn 4.933583 -0.398978 -3.769151
v 0.618292 0.343293 0.372463
vn 2.959358 -1.111204 -1.856214
v 0.661276 0.523380 0.008513
vn 1.146393 1.635104 -1.155454
v 0.652338 0.568876 0.002752
vn -0.399391 -5.076906 -2.301392
v 0.314466 0.018097 0.396790
vn -0.614320 -2.975072 2.020752
v 0.237226 0.019556 0.462775
vn -1.903754 -5.155973 -2.475072
v 0.209725 0.051929 0.390639
vn -3.823660 -4.051249 -0.834701
v 0.089810 0.100857 0.455611
vn 0.593056 -3.138249 1.548774
v 0.511364 0.019811 0.458950
vn -0.768578 -0.110352 6.153293
v 0.456510 0.116737 0.457042
vn 1.002000 -0.018853 6.081298
v 0.222211 0.273805 0.460255
vn -0.113726 -3.022650 3.361694
v 0.094373 0.112422 0.514913
vn -0.374259 -3.620432 -4.999147
v 0.260527 0.077856 0.357187
vn -4.776692 -3.304339 -1.041149
v 0.118735 0.127501 0.355735
vn 1.188633 -4.511192 -1.732611
v 0.181250 0.097085 0.314491
vn 0.819666 -4.867516 -3.407801
v 0.457387 0.038050 0.387265
vn -0.173421 -3.222540 -5.066438
v 0.344773 0.078900 0.336498
vn -0.664618 -0.734840 -5.796281
v 0.313186 0.247714 0.273884
vn 1.380040 -0.508626 -5.417051
v 0.224501 0.414785 0.306364
vn 0.137646 2.702198 -5.453184
v 0.297915 0.486919 0.313881
vn -0.905952 -3.475305 -4.774352
v 0.485648 0.095084 0.349819
vn 3.458736 -3.719295 -0.017186
v 0.101679 0.026352 0.047005
vn 5.641165 -1.352178 -1.572666
v 0.142420 0.073119 0.145564
vn 1.181866 -0.062500 -5.284559
v 0.212921 0.174154 0.321787
vn -5.645246 -0.844665 -1.988827
v 0.025789 0.211055 0.491480
vn 4.103179 4.542654 0.919687
v 0.541461 0.476992 0.411519
vn 2.456675 3.418417 2.872128
v 0.600821 0.426536 0.452012
vn 5.311746 0.417834 -2.643380
v 0.685897 0.294175 0.455767
vn 4.055425 2.895877 0.761696
v 0.702467 0.320514 0.535208
vn 5.025160 1.410492 -2.385676
v 0.104122 0.058460 0.033415
vn 4.171198 2.950790 -2.477696
v 0.127095 0.098734 0.113019
vn 1.830070 -1.370090 -0.407407
v 0.663856 0.499965 0.698924
vn 2.288346 -0.474165 -2.218143
v 0.620421 0.525600 0.615660
vn 4.671506 3.617905 -1.049511
v 0.643374 0.572471 0.775093
vn 2.751365 5.295834 -1.378731
v 0.514371 0.635889 0.669929
vn -0.246220 -5.680741 -0.827731
v 0.598453 0.503701 0.652160
vn 4.128919 2.392191 -3.080397
v 0.550986 0.568972 0.581482
vn 1.960659 -3.728528 -3.131695
v 0.553845 0.528414 0.589028
vn 1.577545 -1.722859 0.222502
v 0.672517 0.506125 0.808306
vn 3.440310 4.961929 -0.547503
v 0.596273 0.625669 0.832357
vn 1.554915 -0.634100 1.049239
v 0.672973 0.543008 0.886721
vn -1.769911 -5.703089 1.788327
v 0.592704 0.543890 0.845751
vn 0.253305 5.556304 1.463227
v 0.168752 0.494406 0.277084
vn -3.081204 4.842373 1.891082
v 0.137352 0.477971 0.293105
vn 5.365793 1.902754 -1.613739
v 0.156447 0.496254 0.178731
vn 0.856532 4.585157 -2.109524
v 0.197577 0.484426 0.303467
vn -5.763418 0.482644 1.307299
v 0.080151 0.497907 0.125706
vn -5.600226 1.997138 -0.371528
v 0.115641 0.423304 0.351470
vn -3.892113 4.429502 1.329647
v 0.154269 0.467751 0.394729
vn -1.682723 -0.092496 1.907109
v 0.084440 0.584103 0.932109
vn -4.749094 1.711613 0.137429
v 0.052742 0.557999 0.837197
vn -2.065141 -3.095299 1.809464
v 0.062837 0.522550 0.852112
vn -1.983099 -2.038454 -0.157466
v 0.054493 0.496594 0.766168
vn -3.289517 5.088969 -0.250137
v 0.135239 0.633834 0.873281
vn -4.686873 3.068484 -1.774339
v 0.093330 0.543080 0.674440
vn -0.120420 -4.527453 3.930549
v 0.242453 0.611758 0.949870
vn 0.978083 -5.948581 1.639423
v 0.234486 0.566044 0.825629
vn 1.665899 -5.866290 1.145878
v 0.095117 0.509206 0.784224
vn -1.434107 1.731318 2.760466
v 0.190894 0.656744 0.966599
vn -1.400692 5.196288 0.720737
v 0.629721 0.565980 0.024560
vn -2.539007 1.355322 -5.193336
v 0.148916 0.239862 0.341231
vn -3.879921 -3.556528 -0.847796
v 0.563125 0.082350 0.212585
vn 1.467053 -5.260076 1.942054
v 0.611910 0.065632 0.175201
vn -0.888297 -4.882535 0.098266
v 0.644741 0.010108 0.013073
vn 0.452983 -3.694786 -4.589666
v 0.168400 0.376388 0.303610
vn -2.642915 -3.295637 -1.799412
v 0.068723 0.508981 0.022562
vn -4.616529 -1.794854 -3.332680
v 0.127149 0.371240 0.331216
vn -5.306787 0.658706 -2.848807
v 0.056458 0.320440 0.425901
vn -3.849275 3.608756 0.326797
v 0.062460 0.380655 0.466548
vn -4.386105 2.179412 0.672366
v 0.017478 0.315654 0.533636
vn -0.656739 3.034257 4.935165
v 0.141517 0.404200 0.466541
vn 0.039348 3.225279 3.483744
v 0.074750 0.365778 0.514998
vn -3.276440 4.763041 -1.513545
v 0.238569 0.544792 0.398916
vn -2.960557 -0.500993 4.780004
v 0.218615 0.448930 0.482337
vn -5.220334 2.940156 0.855453
v 0.212884 0.511708 0.436442
vn -0.802305 4.753349 -3.757214
v 0.267604 0.528896 0.348868
vn 2.015567 -5.569913 -0.991429
v 0.551953 0.091065 0.342456
vn 5.288521 -1.904663 -2.266767
v 0.627324 0.142295 0.402487
vn -0.302578 4.869451 -3.359585
v 0.337829 0.576700 0.390493
vn 3.738769 -3.960192 -0.648936
v 0.629877 0.092337 0.460729
vn 2.883791 -3.138133 0.911971
v 0.686752 0.137086 0.546532
vn 5.198918 -0.738650 0.220691
v 0.723047 0.229081 0.558717
vn 3.549017 -4.398442 0.644528
v 0.509159 0.511141 0.549607
vn 2.851425 -2.015138 4.314372
v 0.492389 0.465214 0.497369
vn 5.654888 1.059325 -0.859962
v 0.509111 0.527782 0.490195
vn 0.089548 -5.969753 1.723055
v 0.371342 0.543486 0.666566
vn -2.148382 -4.227256 3.615134
v 0.255039 0.476966 0.522499
vn -0.014905 -1.603878 5.876064
v 0.342680 0.390026 0.465470
vn -0.343564 -0.098471 6.203393
v 0.504907 0.334026 0.469023
vn 2.706089 4.663375 -2.298823
v 0.461278 0.609883 0.498799
vn -0.806911 -6.140601 0.808929
v 0.509696 0.526245 0.647928
vn -0.795149 -3.295462 -3.426343
v 0.147952 0.521173 0.598043
vn -1.311470 -1.916172 -0.962167
v 0.092752 0.492191 0.641836
vn -2.997053 0.306453 -3.416954
v 0.115739 0.527038 0.607154
vn 1.599268 -6.005064 0.684311
v 0.148529 0.520705 0.702137
vn -3.733534 2.513870 -3.126811
v 0.170453 0.570118 0.587935
vn -2.377189 -5.039539 -0.468355
v 0.212542 0.516926 0.576796
vn -0.919494 -3.049987 4.079990
v 0.631632 0.118088 0.520964
vn 3.614144 0.222247 4.761211
v 0.098313 0.245673 0.506795
vn -3.440650 0.486121 4.857668
v 0.617585 0.261638 0.502012
vn -5.023767 0.954961 -1.506986
v 0.208822 0.550163 0.509461
vn -2.650737 5.007340 -2.189874
v 0.271766 0.604470 0.492227
vn -2.215054 5.493942 -1.257103
v 0.248708 0.661252 0.686129
vn 0.112597 5.691411 -1.803286
v 0.368824 0.653519 0.555180
vn -0.542441 -5.562205 2.724557
v 0.519656 0.594063 0.924076
vn 0.163889 -0.939163 2.869834
v 0.689867 0.200449 0.603602
vn -1.303013 -2.333099 3.725815
v 0.671037 0.154061 0.571655
vn 0.503018 0.200698 3.197077
v 0.461306 0.641987 0.992526
vn 0.798199 -0.110979 3.056884
v 0.535186 0.626388 0.977991
vn 1.519658 0.314841 2.089438
v 0.605495 0.612010 0.953557
vn 0.474853 5.997621 -0.811594
v 0.380206 0.687840 0.730199
vn 2.016457 5.355848 0.990303
v 0.526617 0.667437 0.914720
vn 0.573804 5.725197 1.329083
v 0.397713 0.693817 0.920842
vn -1.119751 5.931182 0.432587
v 0.275510 0.689923 0.903110
vn 2.280035 1.481073 2.793207
v 0.710102 0.278143 0.594019
vn -1.465869 2.644470 3.550609
v 0.668808 0.313736 0.566687
vn -0.541109 1.073047 3.194817
v 0.275478 0.663878 0.993057
vn 0.079621 -1.914379 2.718699
v 0.045278 0.159386 0.578758
vn -1.385357 -0.248648 1.945216
v 0.008362 0.220133 0.599602
vn -4.336033 -3.098300 -0.070738
v 0.030236 0.152914 0.531407
vn 4.307108 -0.060710 4.405139
v 0.054506 0.213099 0.571217
vn 0.489001 1.599237 3.060886
v 0.047010 0.301817 0.582187
vn -2.240887 0.771505 4.695303
v 0.684637 0.257856 0.598476
# 177 vertices, 0 vertices normals

f 1//1 2//2 3//3
f 3//3 2//2 4//4
f 5//5 2//2 1//1
f 4//4 2//2 6//6
f 6//6 2//2 5//5
f 1//1 3//3 7//7
f 8//8 3//3 4//4
f 7//7 3//3 9//9
f 9//9 3//3 8//8
f 10//10 1//1 7//7
f 11//11 1//1 10//10
f 5//5 1//1 11//11
f 12//12 13//13 14//14
f 14//14 13//13 15//15
f 12//12 16//16 13//13
f 13//13 16//16 17//17
f 15//15 13//13 17//17
f 18//18 12//12 14//14
f 19//19 18//18 14//14
f 14//14 20//20 19//19
f 15//15 20//20 14//14
f 21//21 16//16 12//12
f 22//22 12//12 18//18
f 22//22 21//21 12//12
f 21//21 23//23 16//16
f 16//16 23//23 24//24
f 16//16 24//24 17//17
f 25//25 26//26 27//27
f 27//27 26//26 28//28
f 25//25 29//29 26//26
f 26//26 29//29 30//30
f 26//26 30//30 28//28
f 25//25 27//27 31//31
f 31//31 27//27 28//28
f 32//32 29//29 25//25
f 33//33 32//32 25//25
f 33//33 25//25 31//31
f 29//29 34//34 30//30
f 32//32 34//34 29//29
f 35//35 36//36 37//37
f 36//36 38//38 37//37
f 39//39 36//36 35//35
f 40//40 36//36 39//39
f 41//41 38//38 36//36
f 24//24 41//41 36//36
f 24//24 36//36 40//40
f 35//35 37//37 42//42
f 37//37 38//38 43//43
f 42//42 37//37 44//44
f 44//44 37//37 45//45
f 37//37 43//43 45//45
f 39//39 35//35 46//46
f 46//46 35//35 42//42
f 47//47 48//48 18//18
f 48//48 22//22 18//18
f 49//49 48//48 47//47
f 48//48 21//21 22//22
f 50//50 21//21 48//48
f 49//49 50//50 48//48
f 47//47 18//18 19//19
f 51//51 47//47 19//19
f 52//52 47//47 51//51
f 47//47 52//52 49//49
f 53//53 54//54 39//39
f 54//54 40//40 39//39
f 53//53 55//55 54//54
f 54//54 55//55 56//56
f 56//56 40//40 54//54
f 53//53 39//39 57//57
f 57//57 39//39 46//46
f 58//58 55//55 53//53
f 57//57 58//58 53//53
f 59//59 60//60 61//61
f 60//60 62//62 61//61
f 63//63 60//60 59//59
f 64//64 60//60 63//63
f 65//65 60//60 64//64
f 65//65 66//66 60//60
f 60//60 66//66 62//62
f 61//61 67//67 59//59
f 61//61 68//68 69//69
f 61//61 69//69 67//67
f 62//62 68//68 61//61
f 70//70 59//59 71//71
f 59//59 67//67 71//71
f 63//63 59//59 70//70
f 72//72 38//38 41//41
f 38//38 73//73 74//74
f 72//72 73//73 38//38
f 38//38 74//74 43//43
f 75//75 41//41 23//23
f 23//23 41//41 24//24
f 72//72 41//41 71//71
f 71//71 41//41 75//75
f 68//68 4//4 69//69
f 4//4 6//6 69//69
f 8//8 4//4 68//68
f 69//69 76//76 77//77
f 69//69 77//77 78//78
f 69//69 6//6 76//76
f 67//67 69//69 78//78
f 8//8 68//68 79//79
f 79//79 68//68 62//62
f 58//58 44//44 55//55
f 44//44 45//45 55//55
f 45//45 80//80 55//55
f 55//55 80//80 81//81
f 82//82 55//55 83//83
f 55//55 81//81 83//83
f 56//56 55//55 82//82
f 84//84 7//7 85//85
f 85//85 7//7 9//9
f 10//10 7//7 84//84
f 77//77 84//84 85//85
f 78//78 77//77 85//85
f 85//85 9//9 78//78
f 76//76 84//84 77//77
f 11//11 84//84 76//76
f 10//10 84//84 11//11
f 86//86 87//87 88//88
f 87//87 89//89 88//88
f 90//90 87//87 86//86
f 91//91 87//87 92//92
f 91//91 89//89 87//87
f 90//90 92//92 87//87
f 88//88 93//93 86//86
f 88//88 89//89 94//94
f 88//88 94//94 95//95
f 88//88 95//95 93//93
f 90//90 86//86 96//96
f 96//96 86//86 93//93
f 97//97 28//28 98//98
f 28//28 30//30 98//98
f 99//99 28//28 97//97
f 31//31 28//28 99//99
f 97//97 98//98 100//100
f 98//98 30//30 101//101
f 98//98 102//102 103//103
f 98//98 101//101 102//102
f 100//100 98//98 103//103
f 100//100 99//99 97//97
f 104//104 105//105 106//106
f 105//105 107//107 106//106
f 108//108 105//105 104//104
f 109//109 107//107 105//105
f 109//109 105//105 108//108
f 104//104 106//106 110//110
f 110//110 106//106 111//111
f 111//111 106//106 112//112
f 106//106 107//107 112//112
f 113//113 104//104 110//110
f 108//108 104//104 113//113
f 42//42 114//114 58//58
f 42//42 44//44 114//114
f 42//42 58//58 46//46
f 114//114 44//44 58//58
f 46//46 58//58 57//57
f 6//6 5//5 76//76
f 76//76 5//5 11//11
f 78//78 9//9 115//115
f 71//71 78//78 72//72
f 78//78 115//115 72//72
f 67//67 78//78 71//71
f 116//116 23//23 21//21
f 116//116 75//75 23//23
f 50//50 116//116 21//21
f 117//117 116//116 50//50
f 117//117 50//50 118//118
f 118//118 50//50 49//49
f 30//30 34//34 101//101
f 73//73 33//33 99//99
f 33//33 31//31 99//99
f 119//119 33//33 73//73
f 33//33 120//120 32//32
f 119//119 120//120 33//33
f 73//73 99//99 100//100
f 73//73 100//100 74//74
f 73//73 115//115 119//119
f 72//72 115//115 73//73
f 120//120 34//34 32//32
f 101//101 120//120 121//121
f 101//101 34//34 120//120
f 121//121 120//120 119//119
f 102//102 122//122 123//123
f 123//123 122//122 124//124
f 121//121 122//122 102//102
f 115//115 122//122 121//121
f 8//8 122//122 115//115
f 79//79 122//122 8//8
f 124//124 122//122 79//79
f 102//102 123//123 103//103
f 103//103 123//123 125//125
f 123//123 126//126 125//125
f 124//124 126//126 123//123
f 102//102 101//101 121//121
f 100//100 103//103 127//127
f 103//103 125//125 128//128
f 129//129 103//103 128//128
f 127//127 103//103 129//129
f 74//74 100//100 130//130
f 130//130 100//100 127//127
f 115//115 121//121 119//119
f 17//17 24//24 40//40
f 17//17 40//40 56//56
f 9//9 8//8 115//115
f 117//117 131//131 116//116
f 131//131 75//75 116//116
f 51//51 20//20 117//117
f 20//20 131//131 117//117
f 19//19 20//20 51//51
f 132//132 131//131 20//20
f 132//132 20//20 15//15
f 117//117 118//118 51//51
f 51//51 118//118 52//52
f 52//52 118//118 49//49
f 43//43 74//74 133//133
f 133//133 74//74 130//130
f 75//75 70//70 71//71
f 131//131 70//70 75//75
f 134//134 131//131 132//132
f 63//63 70//70 131//131
f 63//63 131//131 134//134
f 15//15 17//17 132//132
f 132//132 17//17 82//82
f 82//82 17//17 56//56
f 134//134 132//132 135//135
f 135//135 132//132 136//136
f 136//136 132//132 82//82
f 137//137 138//138 139//139
f 139//139 138//138 80//80
f 137//137 140//140 138//138
f 138//138 141//141 142//142
f 138//138 142//142 143//143
f 80//80 138//138 81//81
f 140//140 141//141 138//138
f 81//81 138//138 143//143
f 91//91 137//137 139//139
f 139//139 144//144 91//91
f 80//80 43//43 139//139
f 43//43 144//144 139//139
f 92//92 137//137 91//91
f 145//145 137//137 92//92
f 145//145 140//140 137//137
f 91//91 144//144 89//89
f 146//146 147//147 148//148
f 148//148 147//147 109//109
f 149//149 147//147 146//146
f 147//147 107//107 109//109
f 149//149 107//107 147//147
f 150//150 146//146 148//148
f 109//109 150//150 148//148
f 151//151 146//146 150//150
f 151//151 149//149 146//146
f 152//152 64//64 63//63
f 134//134 152//152 63//63
f 142//142 65//65 64//64
f 142//142 128//128 65//65
f 128//128 125//125 65//65
f 125//125 126//126 65//65
f 65//65 126//126 153//153
f 153//153 66//66 65//65
f 143//143 142//142 64//64
f 143//143 64//64 154//154
f 154//154 64//64 152//152
f 141//141 128//128 142//142
f 45//45 43//43 80//80
f 133//133 144//144 43//43
f 141//141 155//155 128//128
f 155//155 129//129 128//128
f 156//156 155//155 150//150
f 150//150 157//157 156//156
f 150//150 155//155 151//151
f 109//109 157//157 150//150
f 156//156 129//129 155//155
f 156//156 157//157 158//158
f 156//156 158//158 133//133
f 127//127 129//129 156//156
f 156//156 133//133 127//127
f 151//151 155//155 141//141
f 140//140 151//151 141//141
f 145//145 92//92 90//90
f 145//145 90//90 96//96
f 96//96 159//159 145//145
f 159//159 140//140 145//145
f 140//140 149//149 151//151
f 135//135 152//152 134//134
f 135//135 136//136 160//160
f 161//161 152//152 135//135
f 161//161 135//135 160//160
f 95//95 159//159 96//96
f 159//159 111//111 140//140
f 110//110 111//111 159//159
f 159//159 162//162 110//110
f 163//163 162//162 159//159
f 164//164 159//159 95//95
f 163//163 159//159 164//164
f 95//95 96//96 93//93
f 144//144 158//158 89//89
f 133//133 158//158 144//144
f 89//89 165//165 94//94
f 158//158 165//165 89//89
f 94//94 165//165 166//166
f 166//166 165//165 167//167
f 158//158 157//157 165//165
f 167//167 165//165 168//168
f 165//165 157//157 168//168
f 164//164 94//94 166//166
f 167//167 162//162 166//166
f 166//166 162//162 163//163
f 163//163 164//164 166//166
f 95//95 94//94 164//164
f 136//136 82//82 83//83
f 83//83 169//169 136//136
f 83//83 81//81 170//170
f 83//83 170//170 169//169
f 167//167 171//171 162//162
f 168//168 171//171 167//167
f 172//172 173//173 174//174
f 174//174 173//173 79//79
f 175//175 173//173 172//172
f 79//79 173//173 124//124
f 124//124 173//173 176//176
f 176//176 173//173 175//175
f 172//172 174//174 66//66
f 62//62 174//174 79//79
f 66//66 174//174 62//62
f 66//66 175//175 172//172
f 111//111 149//149 140//140
f 112//112 149//149 111//111
f 162//162 171//171 110//110
f 113//113 171//171 168//168
f 110//110 171//171 113//113
f 136//136 169//169 160//160
f 168//168 108//108 113//113
f 168//168 157//157 108//108
f 112//112 107//107 149//149
f 108//108 157//157 109//109
f 124//124 176//176 126//126
f 126//126 176//176 153//153
f 81//81 143//143 154//154
f 170//170 81//81 154//154
f 161//161 154//154 152//152
f 177//177 154//154 160//160
f 160//160 154//154 161//161
f 170//170 154//154 177//177
f 127//127 133//133 130//130
f 177//177 160//160 169//169
f 169//169 170//170 177//177
f 153//153 176//176 175//175
f 153//153 175//175 66//66
# 350 faces, 0 coords texture

# End of File
